:version 1.10
:name ASF
:units
  mass 1
  length 1
  angle deg
:documentation
  ASF file generated by Kaydara
:root
  axis xyz
  order  tx ty tz rx ry rz
  position 0 0 0
  orientation 0 0 0
:bonedata
  begin
    id 1
    name RightUpLegDummy
    direction -0.718183 -0.695806 0.00816078
    length 4.904
    axis 0 0 0 xyz
  end
  begin
    id 2
    name RightUpLeg
    direction -0.0736652 -0.994202 0.0783343
    length 17.4976
    axis -2.72909 -3.00389 -4.00133 xyz
    dof rx ry rz
  end
  begin
    id 3
    name RightLeg
    direction -0.0389037 -0.994596 -0.0962598
    length 16.5821
    axis 3.95836 -18.5909 -4.46993 xyz
    dof rx ry rz
  end
  begin
    id 4
    name RightFoot
    direction -0.311643 -0.412678 0.855906
    length 3.77069
    axis -1.99483 -18.8351 -3.27644 xyz
    dof rx ry rz
  end
  begin
    id 5
    name RightToes
    direction -0.317852 0.0389852 0.947339
    length 3.85082
    axis -2.00228 -18.1713 -3.25211 xyz
    dof rx ry rz
  end
  begin
    id 6
    name SpineDummy
    direction 8.3039e-015 1 4.44677e-016
    length 4.6813
    axis 0 0 0 xyz
  end
  begin
    id 7
    name Spine
    direction -0.000262373 0.999988 0.00493267
    length 10.1015
    axis -0.00246081 0.00062579 0.0150362 xyz
    dof rx ry rz
  end
  begin
    id 8
    name Spine1
    direction 0 0 0
    length 0
    axis -0.00349562 0.000650293 0.0196666 xyz
    dof rx ry rz
  end
  begin
    id 9
    name HEadDummy
    direction -0.000343232 0.999999 0.00123745
    length 3.43865
    axis -0.00349562 0.000650293 0.0196666 xyz
  end
  begin
    id 10
    name HEad
    direction -0.0461221 0.980933 0.188796
    length 5.12695
    axis -0.00351404 -7.04812 0.0199272 xyz
    dof rx ry rz
  end
  begin
    id 11
    name LeftShoulder1Dummy
    direction 0.998904 -0.0399089 -0.0244534
    length 3.5433
    axis -0.00349562 0.000650293 0.0196666 xyz
  end
  begin
    id 12
    name LeftShoulder1
    direction 0.99951 1.64443e-005 0.0312999
    length 4.05031
    axis -0.00349562 0.000650293 0.0196666 xyz
    dof rx ry rz
  end
  begin
    id 13
    name LeftArm
    direction 0.984791 0.0515299 0.165927
    length 12.9126
    axis -64.823 -10.7743 5.20463 xyz
    dof rx ry rz
  end
  begin
    id 14
    name LeftForeArm
    direction 0.984968 0.0534808 0.16425
    length 10.8596
    axis -30.0462 -7.70601 1.87451 xyz
    dof rx ry rz
  end
  begin
    id 15
    name LeftHand
    direction 0.975871 0.0289682 0.216418
    length 6.62295
    axis -20.1348 -6.98077 1.86072 xyz
    dof rx ry rz
  end
  begin
    id 16
    name RightShoulderDummy
    direction -0.998877 -0.0405946 -0.0244307
    length 3.5433
    axis -0.00349562 0.000650293 0.0196666 xyz
  end
  begin
    id 17
    name RightShoulder
    direction -0.998933 -0.0249743 -0.0388558
    length 4.05031
    axis -0.0205316 -4.02113 1.41395 xyz
    dof rx ry rz
  end
  begin
    id 18
    name RightArm
    direction -0.997559 0.068664 0.0127103
    length 12.9638
    axis -67.3882 1.84188 -6.15987 xyz
    dof rx ry rz
  end
  begin
    id 19
    name RightForeArm
    direction -0.991508 0.0912848 0.0926241
    length 10.8312
    axis -22.1975 3.41087 -4.28711 xyz
    dof rx ry rz
  end
  begin
    id 20
    name RightHand
    direction -0.989262 0.0600788 0.133232
    length 6.57864
    axis -12.2911 2.17515 -4.39675 xyz
    dof rx ry rz
  end
  begin
    id 21
    name LeftUpLegDummy
    direction 0.718183 -0.695806 0.00816078
    length 4.904
    axis 0 0 0 xyz
  end
  begin
    id 22
    name LeftUpLeg
    direction 0.0831398 -0.99469 0.0606531
    length 17.4976
    axis -1.71016 2.29552 4.63832 xyz
    dof rx ry rz
  end
  begin
    id 23
    name LeftLeg
    direction 0.0498442 -0.991778 -0.117862
    length 16.5821
    axis 5.13757 15.5727 5.13348 xyz
    dof rx ry rz
  end
  begin
    id 24
    name LeftFoot
    direction 0.269026 -0.433896 0.85986
    length 3.77069
    axis -0.576502 15.6961 4.10267 xyz
    dof rx ry rz
  end
  begin
    id 25
    name LeftToes
    direction 0.277311 0.0251143 0.960452
    length 3.85048
    axis -0.576502 15.6961 4.10267 xyz
    dof rx ry rz
  end
:hierarchy
  begin
    root RightUpLegDummy SpineDummy LeftUpLegDummy
    RightUpLegDummy RightUpLeg
    RightUpLeg RightLeg
    RightLeg RightFoot
    RightFoot RightToes
    SpineDummy Spine
    Spine Spine1
    Spine1 HEadDummy LeftShoulder1Dummy RightShoulderDummy
    HEadDummy HEad
    LeftShoulder1Dummy LeftShoulder1
    LeftShoulder1 LeftArm
    LeftArm LeftForeArm
    LeftForeArm LeftHand
    RightShoulderDummy RightShoulder
    RightShoulder RightArm
    RightArm RightForeArm
    RightForeArm RightHand
    LeftUpLegDummy LeftUpLeg
    LeftUpLeg LeftLeg
    LeftLeg LeftFoot
    LeftFoot LeftToes
  end

:SAMPLES-PER-SECOND 30
:FULLY-SPECIFIED
:DEGREES
107
root  -7.01757 39.9829 34.7145 -1.82629 -9.35401 -1.08429
RightUpLeg  -7.87891 -0.682482 2.62703
RightLeg  11.3577 0.150307 -1.09496
RightFoot  -12.88 0.0169421 6.94948
RightToes  -5.82073e-011 -3.18055e-015 -2.98177e-016
Spine  4.26541 -0.169218 0.01638
Spine1  7.08416 -1.14148 5.28405
HEad  -16.713 5.18556 0.406597
LeftShoulder1  -3.88251e-019 9.70628e-020 -3.87848e-018
LeftArm  -27.3574 51.0716 -74.6214
LeftForeArm  5.33015 -16.5279 -2.5931
LeftHand  -0.774268 -3.56076 10.7058
RightShoulder  7.86341 10.5929 37.0723
RightArm  16.151 -43.0109 19.1459
RightForeArm  0.350454 22.7834 -12.3298
RightHand  -1.33307 4.65826 -15.2563
LeftUpLeg  -7.58729 -0.344733 -1.77098
LeftLeg  14.5644 12.0501 8.43901
LeftFoot  -8.19448 0.101419 -2.88424
LeftToes  5.79026e-011 9.70705e-012 -3.73859e-011
108
root  -7.13205 39.9584 34.7231 -2.28947 -9.30305 -1.05853
RightUpLeg  -7.41934 -0.729293 2.73319
RightLeg  11.4636 0.14258 -1.1117
RightFoot  -12.3252 -0.0181706 6.88304
RightToes  -5.82073e-011 -3.18055e-015 -2.98177e-016
Spine  3.53116 -0.0973213 0.272518
Spine1  7.55004 -1.05336 5.32251
HEad  -15.8281 5.26281 0.0858303
LeftShoulder1  -3.88251e-019 9.70628e-020 -3.87848e-018
LeftArm  -21.4533 47.8449 -76.3039
LeftForeArm  2.78484 -20.7442 -1.44179
LeftHand  -0.874111 -4.60448 10.7937
RightShoulder  7.73849 10.5207 36.6124
RightArm  15.8668 -40.8864 22.793
RightForeArm  0.45003 23.0361 -12.4631
RightHand  -1.24871 4.42668 -14.6295
LeftUpLeg  -7.16633 -0.454883 -1.57985
LeftLeg  14.6964 11.9721 8.49218
LeftFoot  -7.61204 0.135083 -3.24937
LeftToes  5.79026e-011 9.70705e-012 -3.73859e-011
109
root  -7.22019 39.9346 34.741 -2.77877 -9.33831 -1.02189
RightUpLeg  -6.909 -0.80435 2.78812
RightLeg  11.4482 0.182473 -1.06666
RightFoot  -11.5112 -0.0630991 6.45582
RightToes  -5.82073e-011 -3.18055e-015 -2.98177e-016
Spine  2.7998 0.00732848 0.887688
Spine1  8.09849 -0.793755 4.73992
HEad  -15.0448 5.00415 -0.0467134
LeftShoulder1  -3.88251e-019 9.70628e-020 -3.87848e-018
LeftArm  -12.5295 45.0874 -77.7865
LeftForeArm  -4.40874 -25.2498 2.2173
LeftHand  -0.87896 -5.22923 10.2111
RightShoulder  7.67267 10.4929 36.3448
RightArm  15.8872 -38.831 25.9121
RightForeArm  0.972464 23.2001 -12.5665
RightHand  -1.17506 4.33297 -13.9121
LeftUpLeg  -6.64068 -0.416705 -1.4283
LeftLeg  14.6904 11.8521 8.45712
LeftFoot  -6.9337 0.168682 -3.48326
LeftToes  5.79026e-011 9.70705e-012 -3.73859e-011
110
root  -7.29377 39.9162 34.7723 -3.37193 -9.46142 -0.949411
RightUpLeg  -6.29764 -0.905712 2.80078
RightLeg  11.4574 0.287983 -1.02315
RightFoot  -10.6747 -0.0927784 5.51452
RightToes  -5.82073e-011 -3.18055e-015 -2.98177e-016
Spine  2.37704 0.144866 1.55483
Spine1  8.50949 -0.444167 3.90966
HEad  -14.4661 4.83396 -0.098843
LeftShoulder1  -3.88251e-019 9.70628e-020 -3.87848e-018
LeftArm  -6.95968 42.9526 -78.8767
LeftForeArm  -9.65567 -29.4426 5.89342
LeftHand  -0.89113 -5.73765 9.87543
RightShoulder  7.62096 10.4672 36.142
RightArm  16.4592 -37.0004 28.5732
RightForeArm  1.31424 23.3531 -12.6579
RightHand  -1.17869 4.33911 -13.9438
LeftUpLeg  -5.90783 -0.271277 -1.33138
LeftLeg  14.5912 11.7438 8.37377
LeftFoot  -6.5023 0.188935 -3.58461
LeftToes  5.79026e-011 9.70705e-012 -3.73859e-011
111
root  -7.36932 39.8995 34.7997 -3.9821 -9.56522 -0.884582
RightUpLeg  -5.74755 -0.908624 2.88074
RightLeg  11.6839 0.340897 -1.1614
RightFoot  -10.3359 -0.0884213 4.63262
RightToes  -5.82073e-011 -3.18055e-015 -2.98177e-016
Spine  2.27465 0.280498 1.88104
Spine1  8.76261 -0.206264 3.56637
HEad  -14.2387 4.94434 -0.253124
LeftShoulder1  -3.88251e-019 9.70628e-020 -3.87848e-018
LeftArm  -7.15937 41.3473 -79.4594
LeftForeArm  -9.55489 -33.7323 7.05813
LeftHand  -0.997236 -6.41113 10.3907
RightShoulder  7.51397 10.3979 35.7565
RightArm  17.9554 -35.5799 30.7705
RightForeArm  0.399448 24.0438 -12.9672
RightHand  -1.21059 4.36072 -14.2848
LeftUpLeg  -5.20688 0.021181 -1.2193
LeftLeg  14.675 11.5214 8.35084
LeftFoot  -6.75174 0.19129 -3.78414
LeftToes  5.79026e-011 9.70705e-012 -3.73859e-011
112
root  -7.45149 39.8765 34.8064 -4.41374 -9.45206 -0.894027
RightUpLeg  -5.4715 -0.790994 3.08551
RightLeg  12.1207 0.161767 -1.50088
RightFoot  -10.5849 -0.0692923 4.29985
RightToes  -5.82073e-011 -3.18055e-015 -2.98177e-016
Spine  2.15298 0.332514 1.76387
Spine1  9.02113 -0.2421 3.99321
HEad  -14.3117 5.09291 -0.56866
LeftShoulder1  -3.88251e-019 9.70628e-020 -3.87848e-018
LeftArm  -7.13562 40.1931 -79.8459
LeftForeArm  -10.9483 -37.7226 8.19541
LeftHand  -1.07474 -6.80116 10.8238
RightShoulder  7.37344 10.3191 35.2169
RightArm  20.2488 -34.6804 32.2733
RightForeArm  -1.55669 25.811 -13.7934
RightHand  -1.22473 4.50249 -14.2496
LeftUpLeg  -4.88028 0.391445 -1.02105
LeftLeg  15.0603 11.0534 8.41243
LeftFoot  -7.48499 0.18323 -4.15309
LeftToes  5.79026e-011 9.70705e-012 -3.73859e-011
